<svg width="446" height="524" viewBox="0 0 446 524" fill="none" xmlns="http://www.w3.org/2000/svg">
<g clip-path="url(#clip0)">
<path d="M14 453H42H433C465 478 431.333 509.667 415 520C290.667 522.667 38.6 526.4 25 520C8 512 -1 485 -1 474C-1 465.2 9 456.333 14 453Z" fill="#F4C064"/>
<path d="M445.609 414.261C445.609 435.776 428.168 453.218 406.652 453.218H39.348C17.833 453.218 0.390991 435.777 0.390991 414.261C0.390991 392.746 17.832 375.304 39.348 375.304H406.652C428.167 375.304 445.609 392.746 445.609 414.261Z" fill="#99774F"/>
<path d="M445.609 364.174C445.609 388.762 425.675 408.696 401.087 408.696C386.493 408.696 373.547 401.668 365.43 390.818C363.347 388.034 360.043 386.435 356.566 386.435C353.089 386.435 349.784 388.034 347.702 390.818C339.585 401.668 326.639 408.696 312.045 408.696C297.451 408.696 284.505 401.668 276.388 390.818C274.306 388.034 271.001 386.435 267.524 386.435C264.047 386.435 260.742 388.034 258.66 390.818C250.543 401.668 237.597 408.696 223.003 408.696C208.409 408.696 195.463 401.668 187.346 390.818C185.263 388.034 181.959 386.435 178.482 386.435C175.005 386.435 171.7 388.034 169.618 390.818C161.501 401.668 148.555 408.696 133.961 408.696C119.367 408.696 106.421 401.668 98.304 390.818C96.221 388.034 92.917 386.435 89.44 386.435C85.963 386.435 82.658 388.034 80.576 390.818C72.459 401.668 59.513 408.696 44.919 408.696C20.331 408.696 0.397003 388.762 0.397003 364.174C0.397003 321.144 35.28 286.261 78.31 286.261H89.44H178.483H267.526H356.569H367.699C410.726 286.261 445.609 321.144 445.609 364.174Z" fill="#91F18B"/>
<path d="M445.609 308.522C445.609 320.817 435.643 330.783 423.348 330.783H22.652C10.357 330.783 0.390991 320.817 0.390991 308.522C0.390991 296.227 10.357 286.261 22.652 286.261H423.348C435.642 286.261 445.609 296.227 445.609 308.522Z" fill="#FF8355"/>
<path d="M423.348 286.261H22.652C10.357 286.261 0.390991 276.295 0.390991 264C0.390991 177.939 70.157 108.174 156.217 108.174H289.782C375.843 108.174 445.608 177.94 445.608 264C445.609 276.295 435.642 286.261 423.348 286.261Z" fill="#F4C064"/>
<path d="M398.304 241.739C398.304 246.349 394.566 250.087 389.956 250.087H378.826C374.216 250.087 370.478 246.349 370.478 241.739C370.478 237.129 374.216 233.391 378.826 233.391H389.956C394.567 233.391 398.304 237.129 398.304 241.739ZM345.435 155.478H334.305C329.695 155.478 325.957 159.216 325.957 163.826C325.957 168.436 329.695 172.174 334.305 172.174H345.435C350.045 172.174 353.783 168.436 353.783 163.826C353.783 159.216 350.045 155.478 345.435 155.478ZM387.174 197.217C387.174 192.607 383.436 188.869 378.826 188.869H367.696C363.086 188.869 359.348 192.607 359.348 197.217C359.348 201.827 363.086 205.565 367.696 205.565H378.826C383.436 205.565 387.174 201.828 387.174 197.217ZM323.174 211.13H312.044C307.434 211.13 303.696 214.868 303.696 219.478C303.696 224.088 307.434 227.826 312.044 227.826H323.174C327.784 227.826 331.522 224.088 331.522 219.478C331.522 214.868 327.784 211.13 323.174 211.13Z" fill="#FFEE92"/>
<path d="M320.357 74.783H217.885V19.13H320.357C326.645 19.13 331.742 24.113 331.742 30.26V63.651C331.742 69.8 326.645 74.783 320.357 74.783Z" fill="#FF8355"/>
<path d="M226.425 16.348V141.565H209.346V16.348C209.346 11.738 213.17 8 217.885 8C222.601 8 226.425 11.738 226.425 16.348Z" fill="#CEA05D"/>
<path d="M249.196 141.565C249.196 146.175 245.373 149.913 240.657 149.913H183.728C179.013 149.913 175.189 146.175 175.189 141.565C175.189 136.955 179.013 133.217 183.728 133.217H240.657C245.373 133.217 249.196 136.955 249.196 141.565Z" fill="#F49744"/>
</g>
<defs>
<clipPath id="clip0">
<rect width="446" height="524" fill="white"/>
</clipPath>
</defs>
</svg>
